<svg width="71" height="35" viewBox="0 0 71 35" fill="none" xmlns="http://www.w3.org/2000/svg">
<rect x="0.5" y="0.5" width="70" height="33.1769" rx="5.5" stroke="#8EE244"/>
<path d="M22.9005 11.9472H14.1274C13.5687 11.9492 13.0337 12.173 12.64 12.5693C12.2463 12.9657 12.0261 13.5022 12.0279 14.0608V25.0633C12.0279 26.2302 12.968 27.1769 14.1274 27.1769H22.9005C23.4592 27.1749 23.9941 26.9511 24.3878 26.5547C24.7815 26.1584 25.0017 25.6219 25 25.0633V14.0608C25 12.8938 24.0599 11.9472 22.9005 11.9472Z" stroke="#8EE244" stroke-width="2" stroke-linecap="round" stroke-linejoin="round"/>
<path d="M19.9721 11.9472V9.11367C19.9721 8.55308 19.7507 8.01539 19.357 7.61949C19.1627 7.42339 18.9315 7.2677 18.6767 7.16137C18.422 7.05505 18.1487 7.00021 17.8726 7H9.09949C8.54326 7 8.00885 7.22249 7.61621 7.61949C7.22168 8.01671 7.00018 8.5538 7 9.11367V20.1161C7 20.6767 7.2214 21.2144 7.61512 21.6103C8.00885 22.0073 8.54217 22.2297 9.09949 22.2297H12.0279" stroke="#8EE244" stroke-width="2" stroke-linecap="round" stroke-linejoin="round"/>
<path d="M36.08 22.0885C35.0827 22.0885 34.3517 21.8788 33.887 21.4595C33.4223 21.0288 33.19 20.3318 33.19 19.3685V16.3085C33.19 15.3565 33.4223 14.6651 33.887 14.2345C34.363 13.8038 35.094 13.5885 36.08 13.5885H37.933V14.8635H35.91C35.4907 14.8635 35.1733 14.9598 34.958 15.1525C34.7427 15.3451 34.635 15.6171 34.635 15.9685V19.7085C34.635 20.0598 34.7427 20.3318 34.958 20.5245C35.1733 20.7171 35.4907 20.8135 35.91 20.8135H37.933V22.0885H36.08ZM45.815 19.3685C45.815 20.3205 45.577 21.0118 45.101 21.4425C44.6364 21.8731 43.911 22.0885 42.925 22.0885H42.704C41.718 22.0885 40.987 21.8731 40.511 21.4425C40.0464 21.0118 39.814 20.3205 39.814 19.3685V16.3085C39.814 15.3565 40.0464 14.6651 40.511 14.2345C40.987 13.8038 41.718 13.5885 42.704 13.5885H42.925C43.911 13.5885 44.6364 13.8038 45.101 14.2345C45.577 14.6651 45.815 15.3565 45.815 16.3085V19.3685ZM44.37 15.9685C44.37 15.6171 44.2624 15.3451 44.047 15.1525C43.8317 14.9598 43.5144 14.8635 43.095 14.8635H42.534C42.1147 14.8635 41.7974 14.9598 41.582 15.1525C41.3667 15.3451 41.259 15.6171 41.259 15.9685V19.7085C41.259 20.0598 41.3667 20.3318 41.582 20.5245C41.7974 20.7171 42.1147 20.8135 42.534 20.8135H43.095C43.5144 20.8135 43.8317 20.7171 44.047 20.5245C44.2624 20.3318 44.37 20.0598 44.37 19.7085V15.9685ZM48.3678 13.5885H49.7278V13.9965C50.0791 13.7245 50.5325 13.5885 51.0878 13.5885H51.3598C52.3571 13.5885 53.0881 13.8038 53.5528 14.2345C54.0175 14.6538 54.2498 15.3451 54.2498 16.3085V19.3685C54.2498 20.3205 54.0118 21.0118 53.5358 21.4425C53.0711 21.8731 52.3458 22.0885 51.3598 22.0885H49.8128V24.9785H48.3678V13.5885ZM50.9178 14.8635C50.5438 14.8635 50.2661 14.9655 50.0848 15.1695C49.9035 15.3621 49.8128 15.5718 49.8128 15.7985V20.8135H51.5298C51.9491 20.8135 52.2665 20.7171 52.4818 20.5245C52.6971 20.3318 52.8048 20.0598 52.8048 19.7085V15.9685C52.8048 15.6171 52.6971 15.3451 52.4818 15.1525C52.2665 14.9598 51.9491 14.8635 51.5298 14.8635H50.9178ZM60.0034 22.8365C59.8674 23.3465 59.7257 23.7545 59.5784 24.0605C59.431 24.3778 59.2214 24.6215 58.9494 24.7915C58.6887 24.9728 58.3374 25.0635 57.8954 25.0635C57.6574 25.0635 57.3344 25.0295 56.9264 24.9615V23.7205C57.2437 23.7658 57.5384 23.7885 57.8104 23.7885C58.1277 23.7885 58.3544 23.5335 58.4904 23.0235L58.7624 22.0885H58.4224L55.7874 13.5885H57.3514L59.3234 20.6095L60.9894 13.5885H62.4684L60.0034 22.8365Z" fill="#8EE244"/>
</svg>
