<svg width="60" height="60" viewBox="0 0 60 60" fill="none" xmlns="http://www.w3.org/2000/svg">
<path d="M38.125 5H21.875C17.4015 5.00661 13.1131 6.78663 9.94988 9.94988C6.78663 13.1131 5.00661 17.4015 5 21.875V38.125C5.00661 42.5985 6.78663 46.8869 9.94988 50.0501C13.1131 53.2134 17.4015 54.9934 21.875 55H38.125C42.5985 54.9934 46.8869 53.2134 50.0501 50.0501C53.2134 46.8869 54.9934 42.5985 55 38.125V21.875C54.9934 17.4015 53.2134 13.1131 50.0501 9.94988C46.8869 6.78663 42.5985 5.00661 38.125 5ZM43.125 42.35C42.9388 42.5374 42.7165 42.6849 42.4715 42.7838C42.2266 42.8826 41.9641 42.9307 41.7 42.925C41.176 42.9241 40.6733 42.7177 40.3 42.35L35.3 37.35C32.8429 39.0986 29.8186 39.8601 26.8264 39.4836C23.8343 39.1071 21.0929 37.6201 19.1456 35.3173C17.1983 33.0146 16.1874 30.0642 16.3131 27.0511C16.4389 24.038 17.6923 21.1822 19.8247 19.0497C21.9572 16.9173 24.813 15.6639 27.8261 15.5381C30.8392 15.4124 33.7896 16.4233 36.0923 18.3706C38.3951 20.3179 39.8821 23.0593 40.2586 26.0514C40.6351 29.0436 39.8736 32.0679 38.125 34.525L43.125 39.525C43.3149 39.7073 43.4664 39.9257 43.5706 40.1673C43.6749 40.409 43.7298 40.669 43.7321 40.9322C43.7345 41.1954 43.6842 41.4564 43.5842 41.6999C43.4842 41.9434 43.3366 42.1644 43.15 42.35H43.125Z" fill="#8EE244"/>
<path d="M36.25 27.5C36.2767 28.5704 36.089 29.6353 35.6978 30.632C35.3067 31.6287 34.72 32.5371 33.9724 33.3036C33.2248 34.0701 32.3314 34.6792 31.3448 35.0951C30.3581 35.511 29.2982 35.7253 28.2275 35.7253C27.1568 35.7253 26.0969 35.511 25.1103 35.0951C24.1236 34.6792 23.2302 34.0701 22.4826 33.3036C21.735 32.5371 21.1483 31.6287 20.7572 30.632C20.366 29.6353 20.1783 28.5704 20.205 27.5C20.2573 25.407 21.1254 23.4172 22.6242 21.9554C24.1231 20.4935 26.1338 19.6753 28.2275 19.6753C30.3212 19.6753 32.332 20.4935 33.8308 21.9554C35.3296 23.4172 36.1978 25.407 36.25 27.5Z" fill="#8EE244"/>
</svg>
